<?xml version="1.0" encoding="iso-8859-1"?>
<!-- Generator: Adobe Illustrator 19.0.0, SVG Export Plug-In . SVG Version: 6.00 Build 0)  -->
<svg version="1.1" id="Capa_1" xmlns="http://www.w3.org/2000/svg" xmlns:xlink="http://www.w3.org/1999/xlink" x="0px" y="0px"
	 viewBox="0 0 375.249 375.249" style="enable-background:new 0 0 375.249 375.249;" xml:space="preserve">
<g>
	<g>
		<path d="M282.179,146.374L193.432,3.014c-2.493-4.019-9.12-4.019-11.614,0l-88.747,143.36c-1.3,2.108-1.36,4.753-0.16,6.917
			c1.207,2.164,3.494,3.504,5.967,3.504h34.133v143.36c0,3.77,3.053,6.827,6.827,6.827h95.573c3.773,0,6.827-3.057,6.828-6.827
			v-143.36h34.133c2.473,0,4.76-1.34,5.966-3.504C283.539,151.127,283.479,148.48,282.179,146.374z M235.411,143.142
			c-3.773,0-6.827,3.057-6.827,6.827v143.36h-81.92v-143.36c0-3.77-3.053-6.827-6.827-6.827h-28.706l76.493-123.563l76.493,123.563
			H235.411z"/>
	</g>
</g>
<g>
	<g>
		<path d="M337.811,286.825h-40.96c-3.773,0-6.827,3.057-6.827,6.827v27.054h-204.8v-27.377c0-3.77-3.053-6.827-6.827-6.827h-40.96
			c-3.773,0-6.827,3.057-6.827,6.827v75.093c0,3.77,3.053,6.827,6.827,6.827h300.373c3.773,0,6.827-3.057,6.827-6.827v-74.771
			C344.638,289.881,341.584,286.825,337.811,286.825z M330.984,361.595H44.264v-61.44h27.307v27.377c0,3.77,3.053,6.827,6.827,6.827
			h218.453c3.773,0,6.827-3.057,6.827-6.827v-27.054h27.307V361.595z"/>
	</g>
</g>
<g>
</g>
<g>
</g>
<g>
</g>
<g>
</g>
<g>
</g>
<g>
</g>
<g>
</g>
<g>
</g>
<g>
</g>
<g>
</g>
<g>
</g>
<g>
</g>
<g>
</g>
<g>
</g>
<g>
</g>
</svg>
